<?xml version="1.0" encoding="UTF-8" standalone="no"?><svg xmlns="http://www.w3.org/2000/svg" xmlns:xlink="http://www.w3.org/1999/xlink" contentStyleType="text/css" height="602px" preserveAspectRatio="none" style="width:517px;height:602px;background:#FFFFFF;" version="1.1" viewBox="0 0 517 602" width="517px" zoomAndPan="magnify"><defs/><g><rect fill="none" height="29.0679" id="_title" style="stroke:none;stroke-width:1.0;" width="136" x="183.75" y="5"/><text fill="#000000" font-family="sans-serif" font-size="14" font-weight="bold" lengthAdjust="spacing" textLength="126" x="188.75" y="24.9659">画图部分的设计模式</text><!--MD5=[0a39a420f124821632eb5e304f6283e5]
class MainScreen--><g id="elem_MainScreen"><rect codeLine="5" fill="#F1F1F1" height="67.0679" id="MainScreen" rx="2.5" ry="2.5" style="stroke:#181818;stroke-width:0.5;" width="192" x="99" y="47.0679"/><ellipse cx="150.75" cy="63.0679" fill="#ADD1B2" rx="11" ry="11" style="stroke:#181818;stroke-width:1.0;"/><path d="M153.7188,68.7085 Q153.1406,69.0054 152.5,69.146 Q151.8594,69.3023 151.1563,69.3023 Q148.6563,69.3023 147.3281,67.6617 Q146.0156,66.0054 146.0156,62.8804 Q146.0156,59.7554 147.3281,58.0992 Q148.6563,56.4429 151.1563,56.4429 Q151.8594,56.4429 152.5,56.5992 Q153.1563,56.7554 153.7188,57.0523 L153.7188,59.771 Q153.0938,59.1929 152.5,58.9273 Q151.9063,58.646 151.2813,58.646 Q149.9375,58.646 149.25,59.7242 Q148.5625,60.7867 148.5625,62.8804 Q148.5625,64.9742 149.25,66.0523 Q149.9375,67.1148 151.2813,67.1148 Q151.9063,67.1148 152.5,66.8492 Q153.0938,66.5679 153.7188,65.9898 L153.7188,68.7085 Z " fill="#000000"/><text fill="#000000" font-family="sans-serif" font-size="14" lengthAdjust="spacing" textLength="80" x="171.25" y="68.4999">MainScreen</text><line style="stroke:#181818;stroke-width:0.5;" x1="100" x2="290" y1="79.0679" y2="79.0679"/><text fill="#000000" font-family="sans-serif" font-size="14" lengthAdjust="spacing" textLength="180" x="105" y="98.0339">painter: QwtPainterWidget</text><line style="stroke:#181818;stroke-width:0.5;" x1="100" x2="290" y1="106.1358" y2="106.1358"/></g><!--MD5=[5d64f0194f8f58f7728b80793af29af5]
class ColorWidthDialog--><g id="elem_ColorWidthDialog"><rect codeLine="9" fill="#F1F1F1" height="48" id="ColorWidthDialog" rx="2.5" ry="2.5" style="stroke:#181818;stroke-width:0.5;" width="150" x="7" y="193.1979"/><ellipse cx="22" cy="209.1979" fill="#ADD1B2" rx="11" ry="11" style="stroke:#181818;stroke-width:1.0;"/><path d="M24.9688,214.8385 Q24.3906,215.1354 23.75,215.276 Q23.1094,215.4323 22.4063,215.4323 Q19.9063,215.4323 18.5781,213.7917 Q17.2656,212.1354 17.2656,209.0104 Q17.2656,205.8854 18.5781,204.2292 Q19.9063,202.5729 22.4063,202.5729 Q23.1094,202.5729 23.75,202.7292 Q24.4063,202.8854 24.9688,203.1823 L24.9688,205.901 Q24.3438,205.3229 23.75,205.0573 Q23.1563,204.776 22.5313,204.776 Q21.1875,204.776 20.5,205.8542 Q19.8125,206.9167 19.8125,209.0104 Q19.8125,211.1042 20.5,212.1823 Q21.1875,213.2448 22.5313,213.2448 Q23.1563,213.2448 23.75,212.9792 Q24.3438,212.6979 24.9688,212.1198 L24.9688,214.8385 Z " fill="#000000"/><text fill="#000000" font-family="sans-serif" font-size="14" lengthAdjust="spacing" textLength="118" x="36" y="214.6299">ColorWidthDialog</text><line style="stroke:#181818;stroke-width:0.5;" x1="8" x2="156" y1="225.1979" y2="225.1979"/><line style="stroke:#181818;stroke-width:0.5;" x1="8" x2="156" y1="233.1979" y2="233.1979"/></g><!--MD5=[fc3315121a85d179ee30b9ee790ebffa]
class QwtPainterWidget--><g id="elem_QwtPainterWidget"><rect codeLine="11" fill="#F1F1F1" height="86.1358" id="QwtPainterWidget" rx="2.5" ry="2.5" style="stroke:#181818;stroke-width:0.5;" width="232" x="192" y="174.1279"/><ellipse cx="242.25" cy="190.1279" fill="#ADD1B2" rx="11" ry="11" style="stroke:#181818;stroke-width:1.0;"/><path d="M245.2188,195.7685 Q244.6406,196.0654 244,196.206 Q243.3594,196.3623 242.6563,196.3623 Q240.1563,196.3623 238.8281,194.7217 Q237.5156,193.0654 237.5156,189.9404 Q237.5156,186.8154 238.8281,185.1592 Q240.1563,183.5029 242.6563,183.5029 Q243.3594,183.5029 244,183.6592 Q244.6563,183.8154 245.2188,184.1123 L245.2188,186.831 Q244.5938,186.2529 244,185.9873 Q243.4063,185.706 242.7813,185.706 Q241.4375,185.706 240.75,186.7842 Q240.0625,187.8467 240.0625,189.9404 Q240.0625,192.0342 240.75,193.1123 Q241.4375,194.1748 242.7813,194.1748 Q243.4063,194.1748 244,193.9092 Q244.5938,193.6279 245.2188,193.0498 L245.2188,195.7685 Z " fill="#000000"/><text fill="#000000" font-family="sans-serif" font-size="14" lengthAdjust="spacing" textLength="123" x="262.75" y="195.5599">QwtPainterWidget</text><line style="stroke:#181818;stroke-width:0.5;" x1="193" x2="423" y1="206.1279" y2="206.1279"/><text fill="#000000" font-family="sans-serif" font-size="14" lengthAdjust="spacing" textLength="220" x="198" y="225.0939">_tool_manager: PlotToolManager</text><line style="stroke:#181818;stroke-width:1.0;stroke-dasharray:1.0,2.0;" x1="193" x2="423" y1="233.1958" y2="233.1958"/><text fill="#000000" font-family="sans-serif" font-size="14" lengthAdjust="spacing" textLength="208" x="198" y="252.1618">_cur_plot_tool: AbstractPlotTool</text></g><!--MD5=[5966da1566c5c0965c3b905f8f733995]
class PlotToolManager--><g id="elem_PlotToolManager"><rect codeLine="20" fill="#F1F1F1" height="48" id="PlotToolManager" rx="2.5" ry="2.5" style="stroke:#181818;stroke-width:0.5;" width="146" x="146" y="379.9379"/><ellipse cx="161" cy="395.9379" fill="#ADD1B2" rx="11" ry="11" style="stroke:#181818;stroke-width:1.0;"/><path d="M163.9688,401.5785 Q163.3906,401.8754 162.75,402.016 Q162.1094,402.1723 161.4063,402.1723 Q158.9063,402.1723 157.5781,400.5317 Q156.2656,398.8754 156.2656,395.7504 Q156.2656,392.6254 157.5781,390.9692 Q158.9063,389.3129 161.4063,389.3129 Q162.1094,389.3129 162.75,389.4692 Q163.4063,389.6254 163.9688,389.9223 L163.9688,392.641 Q163.3438,392.0629 162.75,391.7973 Q162.1563,391.516 161.5313,391.516 Q160.1875,391.516 159.5,392.5942 Q158.8125,393.6567 158.8125,395.7504 Q158.8125,397.8442 159.5,398.9223 Q160.1875,399.9848 161.5313,399.9848 Q162.1563,399.9848 162.75,399.7192 Q163.3438,399.4379 163.9688,398.8598 L163.9688,401.5785 Z " fill="#000000"/><text fill="#000000" font-family="sans-serif" font-size="14" lengthAdjust="spacing" textLength="114" x="175" y="401.3699">PlotToolManager</text><line style="stroke:#181818;stroke-width:0.5;" x1="147" x2="291" y1="411.9379" y2="411.9379"/><line style="stroke:#181818;stroke-width:0.5;" x1="147" x2="291" y1="419.9379" y2="419.9379"/></g><!--MD5=[30d9333c2e623ee41b70084e3a828234]
class AbstractPlotTool--><g id="elem_AbstractPlotTool"><rect codeLine="22" fill="#F1F1F1" height="167.3396" id="AbstractPlotTool" rx="2.5" ry="2.5" style="stroke:#181818;stroke-width:0.5;" width="141" x="326.5" y="320.2679"/><ellipse cx="341.5" cy="336.2679" fill="#ADD1B2" rx="11" ry="11" style="stroke:#181818;stroke-width:1.0;"/><path d="M344.4688,341.9085 Q343.8906,342.2054 343.25,342.346 Q342.6094,342.5023 341.9063,342.5023 Q339.4063,342.5023 338.0781,340.8617 Q336.7656,339.2054 336.7656,336.0804 Q336.7656,332.9554 338.0781,331.2992 Q339.4063,329.6429 341.9063,329.6429 Q342.6094,329.6429 343.25,329.7992 Q343.9063,329.9554 344.4688,330.2523 L344.4688,332.971 Q343.8438,332.3929 343.25,332.1273 Q342.6563,331.846 342.0313,331.846 Q340.6875,331.846 340,332.9242 Q339.3125,333.9867 339.3125,336.0804 Q339.3125,338.1742 340,339.2523 Q340.6875,340.3148 342.0313,340.3148 Q342.6563,340.3148 343.25,340.0492 Q343.8438,339.7679 344.4688,339.1898 L344.4688,341.9085 Z " fill="#000000"/><text fill="#000000" font-family="sans-serif" font-size="14" lengthAdjust="spacing" textLength="109" x="355.5" y="341.6999">AbstractPlotTool</text><line style="stroke:#181818;stroke-width:0.5;" x1="327.5" x2="466.5" y1="352.2679" y2="352.2679"/><text fill="#000000" font-family="sans-serif" font-size="14" lengthAdjust="spacing" textLength="103" x="332.5" y="371.2339">set_line_width()</text><line style="stroke:#181818;stroke-width:1.0;stroke-dasharray:1.0,2.0;" x1="327.5" x2="466.5" y1="379.3358" y2="379.3358"/><text fill="#000000" font-family="sans-serif" font-size="14" lengthAdjust="spacing" textLength="98" x="332.5" y="398.3018">set_line_color()</text><line style="stroke:#181818;stroke-width:1.0;stroke-dasharray:1.0,2.0;" x1="327.5" x2="466.5" y1="406.4038" y2="406.4038"/><text fill="#000000" font-family="sans-serif" font-size="14" lengthAdjust="spacing" textLength="112" x="332.5" y="425.3697">on_touch_down()</text><line style="stroke:#181818;stroke-width:1.0;stroke-dasharray:1.0,2.0;" x1="327.5" x2="466.5" y1="433.4717" y2="433.4717"/><text fill="#000000" font-family="sans-serif" font-size="14" lengthAdjust="spacing" textLength="111" x="332.5" y="452.4376">on_touch_move()</text><line style="stroke:#181818;stroke-width:1.0;stroke-dasharray:1.0,2.0;" x1="327.5" x2="466.5" y1="460.5396" y2="460.5396"/><text fill="#000000" font-family="sans-serif" font-size="14" lengthAdjust="spacing" textLength="93" x="332.5" y="479.5055">on_touch_up()</text></g><!--MD5=[5eddc9f59fcd78e5fac0b9951c15668c]
class LineTool--><g id="elem_LineTool"><rect codeLine="37" fill="#F1F1F1" height="48" id="LineTool" rx="2.5" ry="2.5" style="stroke:#181818;stroke-width:0.5;" width="88" x="125" y="547.6079"/><ellipse cx="140" cy="563.6079" fill="#ADD1B2" rx="11" ry="11" style="stroke:#181818;stroke-width:1.0;"/><path d="M142.9688,569.2485 Q142.3906,569.5454 141.75,569.686 Q141.1094,569.8423 140.4063,569.8423 Q137.9063,569.8423 136.5781,568.2017 Q135.2656,566.5454 135.2656,563.4204 Q135.2656,560.2954 136.5781,558.6392 Q137.9063,556.9829 140.4063,556.9829 Q141.1094,556.9829 141.75,557.1392 Q142.4063,557.2954 142.9688,557.5923 L142.9688,560.311 Q142.3438,559.7329 141.75,559.4673 Q141.1563,559.186 140.5313,559.186 Q139.1875,559.186 138.5,560.2642 Q137.8125,561.3267 137.8125,563.4204 Q137.8125,565.5142 138.5,566.5923 Q139.1875,567.6548 140.5313,567.6548 Q141.1563,567.6548 141.75,567.3892 Q142.3438,567.1079 142.9688,566.5298 L142.9688,569.2485 Z " fill="#000000"/><text fill="#000000" font-family="sans-serif" font-size="14" lengthAdjust="spacing" textLength="56" x="154" y="569.0399">LineTool</text><line style="stroke:#181818;stroke-width:0.5;" x1="126" x2="212" y1="579.6079" y2="579.6079"/><line style="stroke:#181818;stroke-width:0.5;" x1="126" x2="212" y1="587.6079" y2="587.6079"/></g><!--MD5=[6873c44b24c75e5581e36c36acc0ab7e]
class PencilTool--><g id="elem_PencilTool"><rect codeLine="38" fill="#F1F1F1" height="48" id="PencilTool" rx="2.5" ry="2.5" style="stroke:#181818;stroke-width:0.5;" width="100" x="248" y="547.6079"/><ellipse cx="263" cy="563.6079" fill="#ADD1B2" rx="11" ry="11" style="stroke:#181818;stroke-width:1.0;"/><path d="M265.9688,569.2485 Q265.3906,569.5454 264.75,569.686 Q264.1094,569.8423 263.4063,569.8423 Q260.9063,569.8423 259.5781,568.2017 Q258.2656,566.5454 258.2656,563.4204 Q258.2656,560.2954 259.5781,558.6392 Q260.9063,556.9829 263.4063,556.9829 Q264.1094,556.9829 264.75,557.1392 Q265.4063,557.2954 265.9688,557.5923 L265.9688,560.311 Q265.3438,559.7329 264.75,559.4673 Q264.1563,559.186 263.5313,559.186 Q262.1875,559.186 261.5,560.2642 Q260.8125,561.3267 260.8125,563.4204 Q260.8125,565.5142 261.5,566.5923 Q262.1875,567.6548 263.5313,567.6548 Q264.1563,567.6548 264.75,567.3892 Q265.3438,567.1079 265.9688,566.5298 L265.9688,569.2485 Z " fill="#000000"/><text fill="#000000" font-family="sans-serif" font-size="14" lengthAdjust="spacing" textLength="68" x="277" y="569.0399">PencilTool</text><line style="stroke:#181818;stroke-width:0.5;" x1="249" x2="347" y1="579.6079" y2="579.6079"/><line style="stroke:#181818;stroke-width:0.5;" x1="249" x2="347" y1="587.6079" y2="587.6079"/></g><!--MD5=[abb20701decaec33fdce09313a9cab5c]
class RectangleTool--><g id="elem_RectangleTool"><rect codeLine="39" fill="#F1F1F1" height="48" id="RectangleTool" rx="2.5" ry="2.5" style="stroke:#181818;stroke-width:0.5;" width="127" x="383.5" y="547.6079"/><ellipse cx="398.5" cy="563.6079" fill="#ADD1B2" rx="11" ry="11" style="stroke:#181818;stroke-width:1.0;"/><path d="M401.4688,569.2485 Q400.8906,569.5454 400.25,569.686 Q399.6094,569.8423 398.9063,569.8423 Q396.4063,569.8423 395.0781,568.2017 Q393.7656,566.5454 393.7656,563.4204 Q393.7656,560.2954 395.0781,558.6392 Q396.4063,556.9829 398.9063,556.9829 Q399.6094,556.9829 400.25,557.1392 Q400.9063,557.2954 401.4688,557.5923 L401.4688,560.311 Q400.8438,559.7329 400.25,559.4673 Q399.6563,559.186 399.0313,559.186 Q397.6875,559.186 397,560.2642 Q396.3125,561.3267 396.3125,563.4204 Q396.3125,565.5142 397,566.5923 Q397.6875,567.6548 399.0313,567.6548 Q399.6563,567.6548 400.25,567.3892 Q400.8438,567.1079 401.4688,566.5298 L401.4688,569.2485 Z " fill="#000000"/><text fill="#000000" font-family="sans-serif" font-size="14" lengthAdjust="spacing" textLength="95" x="412.5" y="569.0399">RectangleTool</text><line style="stroke:#181818;stroke-width:0.5;" x1="384.5" x2="509.5" y1="579.6079" y2="579.6079"/><line style="stroke:#181818;stroke-width:0.5;" x1="384.5" x2="509.5" y1="587.6079" y2="587.6079"/></g><!--MD5=[5a0ebf18f5e3405746154376b82f3944]
reverse link MainScreen to QwtPainterWidget--><g id="link_MainScreen_QwtPainterWidget"><path codeLine="17" d="M231.79,125.4179 C244.79,140.9079 259.39,158.2979 272.31,173.6879 " fill="none" id="MainScreen-backto-QwtPainterWidget" style="stroke:#181818;stroke-width:1.0;"/><polygon fill="#181818" points="223.62,115.6879,224.4134,122.8552,231.3346,124.8795,230.5412,117.7122,223.62,115.6879" style="stroke:#181818;stroke-width:1.0;"/></g><!--MD5=[efbe7b08c1baee1d5dc7fb1d1b818d23]
reverse link MainScreen to ColorWidthDialog--><g id="link_MainScreen_ColorWidthDialog"><path codeLine="18" d="M158.14,125.5079 C139.29,147.9579 117.11,174.3779 101.57,192.8979 " fill="none" id="MainScreen-backto-ColorWidthDialog" style="stroke:#181818;stroke-width:1.0;"/><polygon fill="#181818" points="166.38,115.6879,159.4588,117.7122,158.6654,124.8795,165.5866,122.8552,166.38,115.6879" style="stroke:#181818;stroke-width:1.0;"/></g><!--MD5=[0328d2e0a915096792af839ae0ed5b0b]
reverse link QwtPainterWidget to PlotToolManager--><g id="link_QwtPainterWidget_PlotToolManager"><path codeLine="34" d="M281.5,273.2079 C264.4,308.7079 243.03,353.0579 230.23,379.6279 " fill="none" id="QwtPainterWidget-backto-PlotToolManager" style="stroke:#181818;stroke-width:1.0;"/><polygon fill="none" points="286.92,261.9479,280.7124,265.6175,281.7122,272.759,287.9198,269.0894,286.92,261.9479" style="stroke:#181818;stroke-width:1.0;"/></g><!--MD5=[31037ab65c2208ee05bef45168cafdc2]
reverse link QwtPainterWidget to AbstractPlotTool--><g id="link_QwtPainterWidget_AbstractPlotTool"><path codeLine="35" d="M334.66,273.5379 C341.7,288.1579 349.46,304.2679 357.04,319.9979 " fill="none" id="QwtPainterWidget-backto-AbstractPlotTool" style="stroke:#181818;stroke-width:1.0;"/><polygon fill="none" points="329.08,261.9479,328.0802,269.0894,334.2878,272.759,335.2876,265.6175,329.08,261.9479" style="stroke:#181818;stroke-width:1.0;"/></g><!--MD5=[b26343cf87e55c42d825f66815d053de]
reverse link AbstractPlotTool to LineTool--><g id="link_AbstractPlotTool_LineTool"><path codeLine="41" d="M309.51,487.1679 C270.28,515.9679 238.32,534.4179 213.2,547.9779 " fill="none" id="AbstractPlotTool-backto-LineTool" style="stroke:#181818;stroke-width:1.0;"/><polygon fill="none" points="305.06,481.7579,325.25,475.3279,313.48,492.9479,305.06,481.7579" style="stroke:#181818;stroke-width:1.0;"/></g><!--MD5=[0371cb9f6432dc9e1b13530ab3a902ee]
reverse link AbstractPlotTool to PencilTool--><g id="link_AbstractPlotTool_PencilTool"><path codeLine="42" d="M336.57,506.0679 C327.39,521.4179 318.75,535.8879 311.97,547.2179 " fill="none" id="AbstractPlotTool-backto-PencilTool" style="stroke:#181818;stroke-width:1.0;"/><polygon fill="none" points="330.46,502.6479,346.72,489.0679,342.47,509.8279,330.46,502.6479" style="stroke:#181818;stroke-width:1.0;"/></g><!--MD5=[4a2a30425aa0e590b4d4e8ea2b535cfe]
reverse link AbstractPlotTool to RectangleTool--><g id="link_AbstractPlotTool_RectangleTool"><path codeLine="43" d="M428.12,508.0679 C432.53,522.6679 436.67,536.3779 439.94,547.2179 " fill="none" id="AbstractPlotTool-backto-RectangleTool" style="stroke:#181818;stroke-width:1.0;"/><polygon fill="none" points="421.51,510.3879,422.44,489.2179,434.92,506.3479,421.51,510.3879" style="stroke:#181818;stroke-width:1.0;"/></g><!--MD5=[e0e8247fcc614f8db00cfd5fda00d5c4]
reverse link PlotToolManager to LineTool--><g id="link_PlotToolManager_LineTool"><path codeLine="45" d="M207.79,442.0779 C198.06,474.3279 184.27,520.0179 176.02,547.3379 " fill="none" id="PlotToolManager-backto-LineTool" style="stroke:#181818;stroke-width:1.0;"/><polygon fill="none" points="211.5,429.7679,205.9412,434.3614,208.0434,441.2593,213.6021,436.6658,211.5,429.7679" style="stroke:#181818;stroke-width:1.0;"/></g><!--MD5=[6e7df2f48101b16347b63f0fabd19f7f]
reverse link PlotToolManager to PencilTool--><g id="link_PlotToolManager_PencilTool"><path codeLine="46" d="M236.3,441.2079 C251.69,473.4979 273.76,519.7679 286.91,547.3379 " fill="none" id="PlotToolManager-backto-PencilTool" style="stroke:#181818;stroke-width:1.0;"/><polygon fill="none" points="230.8,429.6879,229.7651,436.8244,235.9546,440.5244,236.9895,433.388,230.8,429.6879" style="stroke:#181818;stroke-width:1.0;"/></g><!--MD5=[04e58df40b22423e9ee74ae65ff712d4]
reverse link PlotToolManager to RectangleTool--><g id="link_PlotToolManager_RectangleTool"><path codeLine="47" d="M252.08,438.3179 C268.51,454.0979 289.07,472.6979 309,487.6079 C338.89,509.9679 375.13,531.5779 402.98,547.1379 " fill="none" id="PlotToolManager-backto-RectangleTool" style="stroke:#181818;stroke-width:1.0;"/><polygon fill="none" points="243.01,429.4779,244.5175,436.5297,251.6066,437.8504,250.0991,430.7986,243.01,429.4779" style="stroke:#181818;stroke-width:1.0;"/></g><!--MD5=[6394a76c77455ee9e44dbc49a98df0ba]
@startuml 1.画图部分的设计模式 
    title
        画图部分的设计模式
    end title

    class MainScreen {
        painter: QwtPainterWidget
    }

    class ColorWidthDialog

    class QwtPainterWidget {
        _tool_manager: PlotToolManager
        ....
        _cur_plot_tool: AbstractPlotTool
    }

    MainScreen *- - QwtPainterWidget
    MainScreen *- - ColorWidthDialog

    class PlotToolManager

    class AbstractPlotTool {
        set_line_width()
        ....
        set_line_color()
        ....
        on_touch_down()
        ....
        on_touch_move()
        ....
        on_touch_up()
    }

    QwtPainterWidget o- - PlotToolManager
    QwtPainterWidget o- - AbstractPlotTool

    class LineTool
    class PencilTool
    class RectangleTool

    AbstractPlotTool <|- - LineTool
    AbstractPlotTool <|- - PencilTool
    AbstractPlotTool <|- - RectangleTool
    
    PlotToolManager o- - LineTool
    PlotToolManager o- - PencilTool
    PlotToolManager o- - RectangleTool

@enduml

PlantUML version 1.2022.7(Tue Aug 23 01:01:30 CST 2022)
(GPL source distribution)
Java Runtime: OpenJDK Runtime Environment
JVM: OpenJDK 64-Bit Server VM
Default Encoding: UTF-8
Language: en
Country: US
--></g></svg>